<!-- icon666.com - MILLIONS vector ICONS FREE --><svg viewBox="0 0 512 512" xmlns="http://www.w3.org/2000/svg"><path d="m337 225c-31.238281 0-85.621094-15-110-30v103.136719l30 34.339843c23.398438 14.203126 48.074219 27.523438 79.996094 27.523438 14.660156 0 27.691406-1.695312 40.003906-4.054688l30-32.527343v-72.671875c-12.324219 2.519531-55.367188-25.746094-70-25.746094zm0 0" fill="#d8dfe6"></path><path d="m337 195c14.628906 0 57.675781-31.726562 70-34.242188l-30-105.242187c-12.375 2.703125-25.378906 4.484375-40.003906 4.484375-27 0-48.925782-13.492188-72.128906-27.773438-2.585938-1.589843-5.257813-3.121093-7.867188-4.703124l-30 107.476562c24.378906 15 78.757812 60 110 60zm0 0" fill="#d8dfe6"></path><g fill="#f5f5f6"><path d="m19.375 224.792969v104.957031c31.304688-.683594 58.160156-8.070312 82.042969-15.410156 11.875-3.65625 23.429687-7.199219 35.582031-9.855469l30-47.007813-30-88.246093c-14.125 2.886719-27.226562 6.890625-40.34375 10.878906-23.136719 7.03125-48.328125 44.007813-77.28125 44.683594zm0 0"></path><path d="m137 4.054688c-15.816406 3.035156-30.335938 7.28125-44.414062 11.605468-22.699219 6.992188-46.375 13.40625-73.210938 14.085938v105.105468c45.390625-1.042968 108.582031 12.390626 147.625 4.410157zm0 0"></path><path d="m177 75c-14.632812 0-27.675781 31.742188-40 34.261719l-30 59.007812 30 30.960938c12.320312-2.519531 25.378906 25.769531 40 25.769531 31.242188 0 55.617188-15 80 0l30-25.761719-30-64.238281c-24.378906-15-48.757812-60-80-60zm0 0"></path></g><path d="m377 160.757812-30 39.402344 30 50.585938c27.539062-5.628906 51.148438 14.449218 78.609375 8.734375 16.769531-3.492188 34.976563-35.410157 56.390625-33.824219v-89.917969c-24.414062-1.800781-44.671875-29.054687-63.390625-24.628906-24.550781 5.804687-46.453125 44.503906-71.609375 49.648437zm0 0" fill="#d8dfe6"></path><path d="m512 135.738281v-90.738281c0-8.289062-6.710938-15-15-15-33.5 0-59.386719 7.96875-84.417969 15.660156-11.875 3.65625-23.429687 7.199219-35.582031 9.855469v105.242187c44.339844-9.0625 78.566406-29.179687 135-25.019531zm0 0" fill="#175b93"></path><path d="m177 105c31.242188 0 55.617188 15 80 30v-107.476562c-23.398438-14.203126-48.074219-27.523438-79.996094-27.523438-14.660156 0-27.691406 1.695312-40.003906 4.054688v105.207031c12.328125-2.519531 25.367188-4.261719 40-4.261719zm0 0" fill="#519ad9"></path><path d="m337 165c-31.238281 0-55.621094-15-80-30v90c24.378906 15 48.757812 30 80 30 14.632812 0 27.675781-1.734375 40-4.253906v-89.988282c-12.324219 2.515626-25.371094 4.242188-40 4.242188zm0 0" fill="#175b93"></path><path d="m377 250.746094v105.199218c15.816406-3.035156 30.335938-7.28125 44.414062-11.605468 23.964844-7.382813 46.597657-14.339844 75.585938-14.339844 8.289062 0 15-6.710938 15-15v-89.34375c-56.480469-4.183594-90.644531 16.023438-135 25.089844zm0 0" fill="#175b93"></path><path d="m177 195c-14.625 0-27.679688 1.710938-40 4.230469v105.253906c12.375-2.703125 25.378906-4.484375 40.003906-4.484375 27 0 48.925782 13.492188 72.128906 27.773438 2.585938 1.589843 5.257813 3.121093 7.867188 4.703124v-107.476562c-24.378906-15-48.757812-30-80-30zm0 0" fill="#519ad9"></path><path d="m137 109.261719c-39.042969 7.980469-72.234375 24.546875-117.625 25.59375v89.9375c45.371094-1.058594 78.582031-17.585938 117.625-25.5625zm0 0" fill="#519ad9"></path><path d="m15 512c-8.289062 0-15-6.710938-15-15v-482c0-8.289062 6.710938-15 15-15s15 6.710938 15 15v482c0 8.289062-6.710938 15-15 15zm0 0" fill="#663325"></path></svg>